<?xml version="1.0" encoding="iso-8859-1"?>
<!-- Generator: Adobe Illustrator 16.0.0, SVG Export Plug-In . SVG Version: 6.00 Build 0)  -->
<!DOCTYPE svg PUBLIC "-//W3C//DTD SVG 1.1//EN" "http://www.w3.org/Graphics/SVG/1.1/DTD/svg11.dtd">
<svg version="1.1" id="Capa_1" xmlns="http://www.w3.org/2000/svg" xmlns:xlink="http://www.w3.org/1999/xlink" x="0px" y="0px"
	 width="98.84px" height="98.84px" viewBox="0 0 98.84 98.84" style="enable-background:new 0 0 98.84 98.84;" xml:space="preserve"
	>
<g>
	<g>
		<path d="M81.145,39.08c0-15.761-18.201-28.583-40.572-28.583C18.201,10.497,0,23.319,0,39.08c0,8.847,5.619,17.014,15.433,22.457
			c-1.603,5.78-4.179,13.34-7.515,17.364c-0.36,0.437-0.422,1.041-0.159,1.541c0.242,0.457,0.714,0.742,1.232,0.742l0.127-0.005
			c0.748-0.067,18.379-1.8,29.79-13.544c0.551,0.016,1.106,0.025,1.664,0.025C62.943,67.662,81.145,54.84,81.145,39.08z
			 M40.572,59.662c-0.481,0-0.961-0.009-1.437-0.022l-3.514-0.1l-2.45,2.521c-3.511,3.612-7.855,6.084-11.921,7.76
			c0.655-1.909,1.286-3.959,1.893-6.146l1.685-6.074l-5.514-3.06C12.124,50.554,8,44.918,8,39.08
			c0-11.157,14.917-20.583,32.572-20.583s32.571,9.426,32.571,20.583C73.145,50.235,58.229,59.662,40.572,59.662z"/>
		<path d="M98.84,46.737c0-10.3-7.955-19.314-19.781-24.202c4.424,5.02,7.002,10.981,7.002,17.378
			c0,17.781-19.846,32.25-44.239,32.25c-0.014,0-0.03,0-0.044,0c5.162,1.699,10.919,2.656,16.99,2.656
			c0.627,0,1.25-0.012,1.87-0.032c11.271,11.75,28.88,13.483,29.63,13.552c0.026,0.003,0.053,0.004,0.082,0.004
			c0.329,0,0.635-0.182,0.789-0.476c0.17-0.321,0.129-0.71-0.102-0.986c-3.436-4.147-6.066-11.903-7.717-17.935
			C93.193,63.59,98.84,55.526,98.84,46.737z"/>
	</g>
</g>
<g>
</g>
<g>
</g>
<g>
</g>
<g>
</g>
<g>
</g>
<g>
</g>
<g>
</g>
<g>
</g>
<g>
</g>
<g>
</g>
<g>
</g>
<g>
</g>
<g>
</g>
<g>
</g>
<g>
</g>
</svg>
